<svg xmlns="http://www.w3.org/2000/svg" viewBox="0 0 30 20">
  <rect width="30" height="20" fill="#de2910"/>
  <polygon points="5,2 6,5 9,5 6.5,6.8 7.5,9.5 5,7.8 2.5,9.5 3.5,6.8 1,5 4,5" fill="#ffde00"/>
  <polygon points="9,2.5 9.5,3.7 10.8,3.7 9.8,4.5 10.2,5.7 9,4.9 7.8,5.7 8.2,4.5 7.2,3.7 8.5,3.7" fill="#ffde00"/>
  <polygon points="10.5,4.5 11,5.7 12.3,5.7 11.3,6.5 11.7,7.7 10.5,6.9 9.3,7.7 9.7,6.5 8.7,5.7 10,5.7" fill="#ffde00"/>
  <polygon points="10.5,7 11,8.2 12.3,8.2 11.3,9 11.7,10.2 10.5,9.4 9.3,10.2 9.7,9 8.7,8.2 10,8.2" fill="#ffde00"/>
  <polygon points="9,9 9.5,10.2 10.8,10.2 9.8,11 10.2,12.2 9,11.4 7.8,12.2 8.2,11 7.2,10.2 8.5,10.2" fill="#ffde00"/>
</svg>
